<svg width="25" height="25" viewBox="0 0 25 25" fill="none" xmlns="http://www.w3.org/2000/svg">
<g id="gift">
<path id="Vector" d="M5.58008 11.7558H4.08008V8.7558C4.08008 8.0058 4.83008 7.2558 5.58008 7.2558H19.0801C19.8301 7.2558 20.5801 8.0058 20.5801 8.7558V11.7558H19.0801M5.58008 11.7558V19.2558C5.58008 20.0058 6.33008 20.7558 7.08008 20.7558H17.5801C18.3301 20.7558 19.0801 20.0058 19.0801 19.2558V11.7558M5.58008 11.7558H19.0801M12.3301 7.2558L12.3301 20.7558M12.3301 7.2558C11.3301 5.1308 9.25508 1.70579 7.45508 3.50579C5.65508 5.30579 9.70508 7.2558 12.3301 7.2558ZM12.3301 7.2558C12.3301 3.88087 15.7051 1.63081 17.2051 3.13078C19.0801 5.00575 15.3301 7.25572 12.3301 7.2558Z" stroke="white" stroke-opacity="0.9" stroke-linecap="round" stroke-linejoin="round"/>
</g>
</svg>
