<svg width="257" height="256" viewBox="0 0 257 256" fill="none" xmlns="http://www.w3.org/2000/svg">
<g id="Widget">
<g id="Logo wrap">
<path id="Back" d="M131.323 255.969C104.219 255.969 78.3611 245.597 58.5192 226.716C55.0249 223.393 53.7791 218.549 54.8426 214.108L48.2185 209.978C48.2185 209.978 48.0362 210.009 47.945 210.04L39.8017 211.717C39.8017 211.717 39.7713 211.717 39.7409 211.717C36.3377 212.369 32.9953 210.071 32.2964 206.562L23.91 164.142C22.8161 158.614 25.3077 152.559 29.5617 148.801C15.6147 145.105 4.70622 133.615 1.75881 118.927C0.452228 112.468 0.78647 105.729 2.73115 99.4248C2.76154 99.3006 2.79192 99.1764 2.8527 99.0522C7.10669 85.7299 18.0455 75.7305 31.4152 72.9045C35.0919 72.1282 38.9205 71.9108 42.6579 72.2835C40.0144 68.4327 39.4674 63.2467 41.7463 58.8059C60.7678 21.5409 99.631 -1.56339 140.773 0.0824805C163.897 0.983052 185.592 9.30557 203.58 24.0563C206.224 26.2301 207.865 29.3045 208.229 32.7515C208.351 33.8073 208.321 34.8632 208.199 35.888C208.716 35.7637 209.232 35.6395 209.749 35.5153C230.32 31.1988 250.557 44.7384 254.841 65.731C255.388 68.4638 255.661 71.3208 255.601 74.2088C255.601 74.333 255.601 74.4883 255.601 74.6125C255.327 77.6248 253.261 80.047 250.435 80.637L232.872 84.3325L233.237 86.6926C233.237 86.6926 233.237 86.6926 233.267 86.7237L241.562 93.6487C241.562 93.6487 241.562 93.6487 241.593 93.6798C242.991 94.8909 243.841 96.661 243.933 98.5863C243.993 100.667 243.143 102.592 241.532 103.897C238.342 106.567 234.847 108.617 231.079 110.076C231.353 110.635 231.566 111.256 231.718 111.909L234.209 123.833L245.877 121.287C247.792 120.883 249.736 121.225 251.377 122.312C253.018 123.399 254.142 125.076 254.537 127.032L256.816 137.963C257.211 139.919 256.877 141.907 255.813 143.584C254.75 145.261 253.109 146.41 251.195 146.813L239.527 149.36L242.018 161.285C242.869 165.322 240.347 169.297 236.397 170.135L228.557 171.843L226.886 176.532C227.98 177.712 228.831 179.11 229.408 180.663C230.654 183.892 230.563 187.401 229.226 190.569C227.615 194.326 225.762 198.053 223.726 201.624C214.367 218.083 200.906 231.809 184.772 241.342C168.546 250.938 150.041 256 131.263 256L131.323 255.969Z" fill="#2D1D48"/>
<g id="Text">
<g id="NAV">
<g id="Group">
<path id="Vector" d="M211.987 39.9677C194.272 43.6942 182.786 61.4882 186.432 79.5928C187.83 86.4868 191.355 92.8219 196.459 97.6042L158.933 105.492C157.778 105.74 156.624 105.275 155.955 104.219C155.287 103.225 155.256 101.952 155.955 100.927L179.322 64.7179C181.844 60.8361 182.117 56.768 180.021 53.6005C177.924 50.4329 174.156 49.1597 169.629 50.1224L123.412 59.8423C122.926 59.9355 122.592 60.3082 122.44 60.805C122.379 61.3019 122.592 61.7677 122.987 62.0472C126.512 64.4384 129.702 67.2954 132.376 70.6182C132.68 70.9597 133.105 71.115 133.561 71.0219L157.262 66.0532C158.417 65.8048 159.571 66.2706 160.24 67.3264C160.908 68.3201 160.939 69.5934 160.24 70.6182L136.873 106.827C134.351 110.709 134.078 114.777 136.174 117.945C138.271 121.112 142.039 122.385 146.566 121.423L214.66 107.107C214.66 107.107 214.873 107.076 214.995 106.983L217.972 106.362C220.403 106.424 222.895 106.206 225.295 105.709C230.552 104.591 235.292 102.324 239.425 98.8464C239.729 98.598 239.881 98.2874 239.881 97.9148C239.881 97.5421 239.729 97.1695 239.455 96.9521L231.129 90.027C230.856 89.7786 230.491 89.6854 230.157 89.7475C230.005 89.7786 229.884 89.8717 229.732 89.9649C227.605 91.4245 225.265 92.3871 222.713 92.9151C211.865 95.182 201.26 88.0395 199.012 76.9532C196.763 65.8669 203.782 55.029 214.63 52.7309C222.105 51.1472 229.701 53.9731 234.411 60.1839C235.049 60.9914 235.201 62.0783 234.867 63.0409C234.533 64.0036 233.712 64.6868 232.71 64.9042L217.76 68.0407C217.304 68.1338 216.939 68.5065 216.848 68.9412C216.757 69.376 216.909 69.8729 217.274 70.2144L228 78.8165C228.273 79.0649 228.638 79.0959 228.972 79.0338L233.165 78.1643L233.56 78.0712L250.546 74.4999C251.093 74.3757 251.457 73.9099 251.518 73.2888C251.549 70.8666 251.336 68.3823 250.85 65.9911C247.143 47.8865 229.732 36.2101 211.987 39.9366V39.9677Z" fill="white"/>
<path id="Vector_2" d="M116.42 89.3491L101.471 92.4855C101.015 92.5787 100.65 92.9513 100.559 93.3861C100.468 93.8209 100.62 94.3177 100.985 94.6593L111.711 103.261C111.984 103.51 112.349 103.541 112.683 103.479L116.876 102.609L117.271 102.516L129.274 100.001C132.616 99.1932 134.986 95.9015 134.773 92.3613C134.713 91.7402 134.591 91.1192 134.439 90.467C130.793 72.3624 113.382 60.6239 95.6671 64.3504C81.0516 67.4248 70.3862 80.157 69.4746 95.1562C62.8505 81.7408 48.2047 74.3809 33.5891 77.4553C15.8743 81.1818 4.38852 98.9759 8.0348 117.08C11.6811 135.185 29.0921 146.924 46.8069 143.197C52.0636 142.079 56.8038 139.812 60.9362 136.334C61.2401 136.086 61.392 135.775 61.392 135.402C61.392 135.03 61.2401 134.657 60.9666 134.44L52.641 127.515C52.3675 127.266 52.0029 127.173 51.6686 127.235C51.5167 127.266 51.3951 127.359 51.2432 127.453C49.1162 128.912 46.7765 129.875 44.2849 130.403C33.4372 132.67 22.8326 125.527 20.5841 114.441C18.3659 103.355 25.3546 92.5166 36.2023 90.2186C43.6772 88.6348 51.2736 91.4607 55.9834 97.6716C56.6215 98.479 56.7734 99.5659 56.4392 100.529C56.1049 101.491 55.2845 102.174 54.2818 102.392L39.332 105.528C38.8763 105.621 38.5116 105.994 38.4205 106.429C38.3293 106.864 38.4812 107.36 38.8459 107.702L49.572 116.304C49.8455 116.553 50.2101 116.584 50.5443 116.521L54.7376 115.652L55.1326 115.559L71.1458 112.205C71.4801 112.205 71.9966 112.143 72.2701 112.329C72.7867 112.64 73.2728 113.23 74.3363 114.782C74.3363 114.845 74.3971 114.813 74.4275 114.876C81.5377 126.707 95.272 132.98 108.946 130.092C114.202 128.974 118.942 126.707 123.075 123.229C123.379 122.981 123.531 122.67 123.5 122.267C123.5 121.925 123.348 121.521 123.075 121.304L114.749 114.379C114.476 114.13 114.111 114.037 113.777 114.099C113.625 114.13 113.503 114.223 113.352 114.317C111.225 115.776 108.885 116.739 106.393 117.267C95.5455 119.534 84.9409 112.391 82.6924 101.305C80.4742 90.2186 87.4629 79.3807 98.3106 77.0827C105.785 75.4989 113.382 78.3248 118.092 84.5357C118.73 85.3431 118.882 86.43 118.547 87.3926C118.122 88.4795 117.362 89.1627 116.36 89.3801L116.42 89.3491Z" fill="white"/>
</g>
</g>
<path id="Vector_3" d="M248.129 125.716L233.301 128.946C232.207 129.194 231.113 128.48 230.901 127.362L227.741 112.208C227.498 111.09 226.434 110.376 225.34 110.624L214.644 112.953C213.551 113.202 212.852 114.288 213.095 115.406L216.255 130.561C216.498 131.679 215.799 132.797 214.705 133.014L182.77 139.504C181.676 139.753 180.977 140.84 181.22 141.958L200.606 149.628C200.849 150.746 201.913 151.46 203.007 151.212L217.835 147.982C218.929 147.734 220.023 148.448 220.235 149.566L223.395 164.72C223.639 165.838 224.702 166.553 225.796 166.304L236.492 163.975C237.586 163.727 238.284 162.64 238.041 161.522L234.881 146.367C234.638 145.249 235.337 144.132 236.431 143.914L251.259 140.685C252.353 140.436 253.052 139.349 252.809 138.231L250.53 127.3C250.287 126.182 249.223 125.468 248.129 125.716Z" fill="url(#paint0_linear_669_213384)"/>
<g id="Group_2">
<g id="Group_3">
<path id="Vector_4" d="M38.6341 204.636L30.2477 162.247C29.2753 157.309 33.2862 150.881 38.4214 149.825L56.8959 145.974C56.8959 145.974 57.0174 145.974 57.0782 145.912C58.2632 145.478 76.677 141.161 80.2321 158.955C83.6353 176.035 65.0696 179.761 62.6692 180.165C62.4565 180.196 62.2438 180.165 62.0615 180.103L50.5453 173.768C49.5426 173.364 49.7249 171.936 50.7884 171.718L62.0615 169.358C62.0615 169.358 70.9948 168.271 69.6883 161.377C68.3817 154.483 61.4234 155.974 60.7245 156.036C60.6941 156.036 60.7549 156.036 60.7245 156.036L40.7003 160.197C40.7003 160.197 47.4459 195.847 49.026 202.555C49.1779 203.145 48.7525 203.766 48.1144 203.89L39.9407 205.567C39.333 205.692 38.7556 205.226 38.6341 204.636Z" fill="white"/>
<path id="Vector_5" d="M156.023 125.297L147.212 127.129C146.118 127.346 145.388 128.278 145.54 129.178L152.408 163.618C152.468 164.301 154.413 170.915 145.875 172.623C137.488 174.3 137.032 165.947 137.032 165.947L130.348 132.47C130.165 131.57 129.132 131.011 128.038 131.259L119.226 133.091C118.132 133.309 117.403 134.24 117.555 135.141L123.693 165.978C123.632 166.164 123.845 166.878 123.967 167.282L124.088 167.872C124.574 171.071 127.765 187.032 147.789 182.84C165.564 179.145 165.96 166.506 165.261 161.506H165.291L158.302 126.539C158.12 125.638 157.087 125.079 155.993 125.328L156.023 125.297Z" fill="white"/>
<path id="Vector_6" d="M200.777 130.55C200.473 131.606 199.379 132.165 198.406 131.792C197.434 131.42 196.219 131.078 194.791 130.768C193.362 130.457 191.843 130.24 190.202 130.115C188.562 129.991 186.981 130.115 185.432 130.426C183.396 130.861 181.907 131.544 180.965 132.507C180.023 133.469 179.689 134.68 179.993 136.109C180.175 137.009 180.57 137.693 181.147 138.19C181.755 138.686 182.545 139.059 183.517 139.339C184.49 139.618 185.705 139.835 187.103 139.929C188.501 140.053 190.142 140.177 191.965 140.301C194.578 140.488 196.948 140.767 199.075 141.171C201.232 141.574 203.116 142.227 204.757 143.158C206.398 144.09 207.765 145.332 208.859 146.885C209.953 148.468 210.743 150.456 211.229 152.878C211.807 155.828 211.776 158.468 211.108 160.735C210.439 163.002 209.315 164.958 207.796 166.604C206.246 168.25 204.362 169.585 202.144 170.641C199.926 171.697 197.556 172.473 195.094 173.001C193.211 173.405 191.266 173.653 189.23 173.747C187.225 173.871 185.219 173.84 183.214 173.653C181.208 173.467 179.233 173.188 177.288 172.753C175.921 172.473 174.645 172.101 173.399 171.666C172.488 171.355 172.001 170.362 172.244 169.43L174.341 161.48C174.614 160.424 175.739 159.834 176.772 160.238C176.893 160.3 177.015 160.331 177.137 160.393C178.322 160.859 179.78 161.294 181.451 161.667C183.122 162.039 185.006 162.288 187.042 162.443C189.078 162.598 191.084 162.443 193.089 162.039C197.282 161.17 199.136 159.431 198.619 156.791C198.437 155.797 197.951 155.052 197.191 154.555C196.431 154.058 195.459 153.655 194.244 153.344C193.028 153.064 191.63 152.847 190.05 152.723C188.47 152.599 186.708 152.443 184.824 152.257C182.302 152.009 180.084 151.636 178.17 151.139C176.255 150.642 174.615 149.928 173.217 149.058C171.819 148.158 170.725 147.04 169.874 145.674C169.024 144.307 168.416 142.63 168.021 140.674C167.474 137.91 167.504 135.364 168.082 133.035C168.659 130.705 169.692 128.625 171.151 126.793C172.609 124.96 174.402 123.47 176.559 122.228C178.717 121.017 181.056 120.147 183.609 119.588C185.432 119.215 187.255 118.998 189.078 118.998C190.901 118.998 192.633 119.091 194.304 119.309C195.976 119.526 197.586 119.837 199.136 120.24C200.017 120.458 200.837 120.706 201.597 120.954C202.539 121.265 203.086 122.29 202.812 123.252L200.716 130.643L200.777 130.55Z" fill="white"/>
</g>
<path id="Vector_7" d="M101.79 181.567L93.5252 140.141C93.3429 139.241 92.3098 138.682 91.2159 138.899L81.9483 140.824C80.8544 141.042 80.0947 141.973 80.277 142.874L90.0308 191.846C90.3347 193.43 92.1578 194.393 94.0721 193.989L94.3152 193.927L102.762 192.157L110.207 190.604L111.118 190.418C111.362 190.356 111.422 190.356 111.514 190.325L116.193 189.331L128.408 186.66C128.773 186.567 129.076 186.257 129.137 185.915C129.198 185.573 129.076 185.17 128.773 184.89C128.773 184.89 126.311 183.369 124.427 181.63C122.544 179.89 121.753 177.655 121.753 177.655C121.51 177.468 121.237 177.437 120.963 177.499L101.76 181.536L101.79 181.567Z" fill="white"/>
</g>
</g>
<path id="Top &#38; Bottom vector" d="M217.69 177.81C218.692 177.81 219.695 178.027 220.637 178.462C224.374 180.139 226.076 184.58 224.435 188.399C208.24 226.192 171.686 250.601 131.333 250.601C105.566 250.601 80.9844 240.726 62.1453 222.807C59.1675 219.95 58.9852 215.199 61.7807 212.125C64.5761 209.081 69.2252 208.895 72.2333 211.752C88.3377 227.062 109.334 235.508 131.364 235.508C165.852 235.508 197.088 214.64 210.944 182.344C212.159 179.518 214.864 177.81 217.72 177.81H217.69ZM46.4663 61.3877C44.5824 65.0831 45.9801 69.6481 49.6264 71.5735C53.2423 73.4988 57.709 72.0703 59.5929 68.3438C75.0288 38.0039 106.6 19.2472 140.024 20.5514C158.802 21.2967 176.426 28.0355 191.041 40.0224C194.232 42.631 198.881 42.1341 201.433 38.8734C203.986 35.6127 203.499 30.8614 200.309 28.2529C183.232 14.2164 162.57 6.32863 140.601 5.45912C101.495 3.90641 64.5458 25.8617 46.4663 61.3566V61.3877Z" fill="url(#paint1_linear_669_213384)"/>
</g>
</g>
<defs>
<linearGradient id="paint0_linear_669_213384" x1="248.958" y1="124.289" x2="190.506" y2="158.047" gradientUnits="userSpaceOnUse">
<stop stop-color="#1D62D9"/>
<stop offset="0.84" stop-color="#30D68A"/>
<stop offset="1" stop-color="#31D887"/>
</linearGradient>
<linearGradient id="paint1_linear_669_213384" x1="46.6046" y1="144.174" x2="216.599" y2="114.842" gradientUnits="userSpaceOnUse">
<stop stop-color="#1D62D9"/>
<stop offset="0.28" stop-color="#1A9AE8"/>
<stop offset="0.32" stop-color="#1FA7D4"/>
<stop offset="0.4" stop-color="#25B9B8"/>
<stop offset="0.48" stop-color="#2BC7A2"/>
<stop offset="0.57" stop-color="#2ED093"/>
<stop offset="0.68" stop-color="#30D68A"/>
<stop offset="0.83" stop-color="#31D887"/>
</linearGradient>
</defs>
</svg>
