<svg width="48" height="64" viewBox="0 0 48 64" fill="none" xmlns="http://www.w3.org/2000/svg">
<g id="Logomark" clip-path="url(#clip0_607_28719)">
<path id="Bolt logo mark" d="M42.1387 33.4304C42.0522 33.245 41.8654 33.1242 41.6608 33.1242H23.5835L27.377 28.6454C27.5088 28.4888 27.5391 28.269 27.4539 28.0836C27.3674 27.8982 27.1806 27.7773 26.9759 27.7773H14.3609H-11.707C-9.65099 31.1643 -5.90561 33.4318 -1.6246 33.4318C-1.49 33.4318 -1.35677 33.4291 -1.22355 33.4249C0.460288 33.4236 11.0001 33.4181 11.0344 33.4181H11.6786C11.6786 33.4181 11.6799 33.4181 11.6799 33.4194C11.772 33.6076 11.7445 33.8328 11.6099 33.9935L7.72579 38.5795C7.62553 38.6976 7.47857 38.7663 7.32337 38.7663H37.7781C37.9333 38.7663 38.0802 38.699 38.1805 38.5795L42.0646 33.9935C42.195 33.8356 42.2253 33.6172 42.1387 33.4304Z" fill="url(#paint0_linear_607_28719)"/>
</g>
<defs>
<linearGradient id="paint0_linear_607_28719" x1="-4.05313" y1="35.8111" x2="35.9641" y2="29.873" gradientUnits="userSpaceOnUse">
<stop stop-color="#1D62D9"/>
<stop offset="0.2776" stop-color="#1A9AE8"/>
<stop offset="0.3229" stop-color="#1FA7D4"/>
<stop offset="0.3989" stop-color="#25B9B8"/>
<stop offset="0.4811" stop-color="#2BC7A2"/>
<stop offset="0.5714" stop-color="#2ED093"/>
<stop offset="0.6761" stop-color="#30D68A"/>
<stop offset="0.8284" stop-color="#31D887"/>
</linearGradient>
<clipPath id="clip0_607_28719">
<rect width="64" height="64" fill="white" transform="translate(-16.7578 -0.292969)"/>
</clipPath>
</defs>
</svg>
