<svg width="33" height="33" viewBox="0 0 33 33" fill="none" xmlns="http://www.w3.org/2000/svg">
<g id="cog">
<g id="Vector">
<path d="M14.7354 4.33772C14.791 4.11513 14.991 3.95898 15.2205 3.95898H18.4397C18.6691 3.95898 18.8691 4.11513 18.9248 4.33772L19.6141 7.09518C19.657 7.26671 19.7876 7.4019 19.9556 7.45712C20.3379 7.5828 20.71 7.7309 21.0704 7.89989C21.2129 7.96669 21.3782 7.96742 21.5189 7.89704L24.2859 6.51355C24.4784 6.4173 24.7109 6.45503 24.8631 6.60721L27.1819 8.92598C27.334 9.07816 27.3718 9.31065 27.2755 9.50314L25.892 12.2701C25.8216 12.4109 25.8224 12.5762 25.8892 12.7187C26.0164 12.99 26.1318 13.268 26.2347 13.552C26.2883 13.6999 26.4046 13.8172 26.5538 13.8669L29.4882 14.845C29.6924 14.9131 29.8301 15.1041 29.8301 15.3194V18.5986C29.8301 18.8138 29.6924 19.0049 29.4882 19.0729L26.5538 20.0511C26.4046 20.1008 26.2883 20.2181 26.2347 20.366C26.1318 20.6499 26.0164 20.9279 25.8892 21.1993C25.8224 21.3418 25.8216 21.5071 25.892 21.6478L27.2755 24.4148C27.3718 24.6073 27.334 24.8398 27.1819 24.992L24.8631 27.3108C24.7109 27.4629 24.4784 27.5007 24.2859 27.4044L21.5189 26.0209C21.3782 25.9506 21.2129 25.9513 21.0704 26.0181C20.799 26.1453 20.521 26.2607 20.237 26.3636C20.0892 26.4172 19.9719 26.5335 19.9222 26.6827L18.944 29.6171C18.876 29.8213 18.6849 29.959 18.4697 29.959H15.1905C14.9752 29.959 14.7842 29.8213 14.7161 29.6171L13.738 26.6827C13.6883 26.5335 13.571 26.4172 13.4231 26.3636C13.045 26.2266 12.6774 26.0674 12.3221 25.8876C12.1642 25.8078 11.9762 25.811 11.8245 25.902L9.38667 27.3647C9.18993 27.4828 8.9381 27.4518 8.77587 27.2895L6.49953 25.0132C6.3373 24.851 6.3063 24.5991 6.42434 24.4024L7.88705 21.9646C7.97805 21.8129 7.98127 21.6248 7.90143 21.467C7.67735 21.0241 7.48527 20.5622 7.32821 20.0845C7.273 19.9165 7.1378 19.7859 6.96627 19.743L4.20881 19.0537C3.98623 18.998 3.83008 18.798 3.83008 18.5686L3.83008 15.3494C3.83008 15.1199 3.98623 14.9199 4.20881 14.8643L6.96627 14.1749C7.1378 14.1321 7.273 14.0015 7.32821 13.8335C7.48527 13.3557 7.67735 12.8939 7.90142 12.451C7.98127 12.2931 7.97805 12.1051 7.88704 11.9534L6.42433 9.51557C6.30629 9.31884 6.33729 9.06701 6.49952 8.90477L8.77586 6.62844C8.93809 6.4662 9.18992 6.4352 9.38666 6.55325L11.8245 8.01595C11.9762 8.10696 12.1642 8.11018 12.3221 8.03033C12.765 7.80626 13.2268 7.61418 13.7046 7.45712C13.8725 7.4019 14.0031 7.26671 14.046 7.09518L14.7354 4.33772Z" stroke="white" stroke-opacity="0.9" stroke-width="1.33333" stroke-linecap="round" stroke-linejoin="round"/>
<path d="M21.8301 16.959C21.8301 19.7204 19.5915 21.959 16.8301 21.959C14.0687 21.959 11.8301 19.7204 11.8301 16.959C11.8301 14.1976 14.0687 11.959 16.8301 11.959C19.5915 11.959 21.8301 14.1976 21.8301 16.959Z" stroke="white" stroke-opacity="0.9" stroke-width="1.33333" stroke-linecap="round" stroke-linejoin="round"/>
</g>
</g>
</svg>
