<svg width="33" height="33" viewBox="0 0 33 33" fill="none" xmlns="http://www.w3.org/2000/svg">
<g id="earth">
<path id="Vector" d="M21.8301 5.2793C21.8301 6.44596 20.095 6.7793 18.8301 6.7793C13.6131 6.7793 8.12461 10.2584 7.40863 14.7831C7.32231 15.3286 6.88236 15.7793 6.33008 15.7793H3.33008M4.33008 21.2793C5.11554 21.5411 6.45626 22.5638 7.77073 22.7968C8.33976 22.8976 8.92272 23.2605 9.06875 23.8196C9.3716 24.9791 9.6174 25.811 8.83008 27.7793M17.5548 26.0722C16.5548 26.0722 12.5548 23.8722 12.5548 17.0722C12.5548 11.5722 16.0548 10.0722 21.0548 10.0722C24.0548 10.0722 26.0548 11.5722 26.0548 15.0722C26.0548 18.5722 22.5548 17.7793 21.0548 19.2793C19.5548 20.7793 21.0548 26.0722 17.5548 26.0722ZM29.3301 16.7793C29.3301 23.959 23.5098 29.7793 16.3301 29.7793C9.15038 29.7793 3.33008 23.959 3.33008 16.7793C3.33008 9.5996 9.15038 3.7793 16.3301 3.7793C23.5098 3.7793 29.3301 9.5996 29.3301 16.7793Z" stroke="white" stroke-opacity="0.9"/>
</g>
</svg>
