<svg width="33" height="34" viewBox="0 0 33 34" fill="none" xmlns="http://www.w3.org/2000/svg">
<g id="mdi-light:phone">
<path id="Vector" d="M26.4813 30.7352C27.0199 30.7352 27.5364 30.5212 27.9172 30.1404C28.2981 29.7596 28.512 29.243 28.512 28.7044V23.966C28.512 23.4274 28.2981 22.9109 27.9172 22.53C27.5364 22.1492 27.0199 21.9352 26.4813 21.9352C24.8973 21.9352 23.3404 21.6915 21.8511 21.1906C21.4951 21.0782 21.1151 21.0655 20.7523 21.1538C20.3895 21.2421 20.0579 21.4281 19.7933 21.6915L17.8438 23.6411C14.4757 21.8031 11.7076 19.035 9.86965 15.6669L11.8056 13.7309C12.3607 13.2029 12.5638 12.4177 12.3201 11.6596C11.8327 10.1839 11.589 8.62696 11.589 7.04297C11.589 6.50438 11.3751 5.98785 10.9942 5.607C10.6134 5.22616 10.0969 5.01221 9.55827 5.01221H4.81982C4.28123 5.01221 3.7647 5.22616 3.38386 5.607C3.00302 5.98785 2.78906 6.50438 2.78906 7.04297C2.78906 20.1075 13.4167 30.7352 26.4813 30.7352ZM4.81982 6.36605H9.55827C9.7378 6.36605 9.90998 6.43737 10.0369 6.56431C10.1639 6.69126 10.2352 6.86344 10.2352 7.04297C10.2352 8.77589 10.506 10.4682 11.034 12.0793C11.1016 12.2688 11.0881 12.5396 10.8715 12.7562L8.20443 15.4097C10.4383 19.7826 13.7146 23.0589 18.101 25.3198L20.741 22.6528C20.9305 22.4632 21.1878 22.4091 21.4315 22.4768C23.0561 23.0183 24.7484 23.2891 26.4813 23.2891C26.6608 23.2891 26.833 23.3604 26.9599 23.4873C27.0869 23.6143 27.1582 23.7865 27.1582 23.966V28.7044C27.1582 28.884 27.0869 29.0561 26.9599 29.1831C26.833 29.31 26.6608 29.3813 26.4813 29.3813C14.1613 29.3813 4.1429 19.3629 4.1429 7.04297C4.1429 6.86344 4.21422 6.69126 4.34117 6.56431C4.46812 6.43737 4.64029 6.36605 4.81982 6.36605Z" fill="white"/>
</g>
</svg>
