<svg width="35" height="35" viewBox="0 0 35 35" fill="none" xmlns="http://www.w3.org/2000/svg">
<path d="M17.3281 4.66699C14.7013 4.66699 12.1336 5.44592 9.94946 6.90529C7.76537 8.36465 6.06308 10.4389 5.05786 12.8657C4.05263 15.2926 3.78962 17.963 4.30208 20.5393C4.81454 23.1156 6.07945 25.4821 7.93687 27.3395C9.79429 29.1969 12.1608 30.4618 14.7371 30.9743C17.3134 31.4868 19.9838 31.2237 22.4106 30.2185C24.8375 29.2133 26.9117 27.511 28.3711 25.3269C29.8304 23.1428 30.6094 20.575 30.6094 17.9482C30.6055 14.427 29.205 11.0511 26.7151 8.56125C24.2252 6.07137 20.8493 4.67086 17.3281 4.66699ZM17.3281 24.8545C15.9622 24.8545 14.627 24.4494 13.4912 23.6906C12.3555 22.9317 11.4703 21.8531 10.9476 20.5911C10.4249 19.3292 10.2881 17.9406 10.5546 16.6009C10.8211 15.2612 11.4788 14.0306 12.4447 13.0648C13.4105 12.0989 14.6411 11.4412 15.9808 11.1747C17.3205 10.9082 18.7091 11.045 19.971 11.5677C21.233 12.0904 22.3116 12.9756 23.0705 14.1113C23.8293 15.2471 24.2344 16.5823 24.2344 17.9482C24.2323 19.7792 23.504 21.5347 22.2093 22.8294C20.9145 24.1241 19.1591 24.8524 17.3281 24.8545ZM22.5702 11.9544C21.2581 10.8017 19.6021 10.1145 17.8594 9.99941V5.74145C20.7303 5.86438 23.4652 6.99916 25.5798 8.94488L22.5702 11.9544ZM16.7969 9.99941C15.0541 10.1145 13.3981 10.8017 12.086 11.9544L9.07649 8.94488C11.1911 6.99916 13.9259 5.86438 16.7969 5.74145V9.99941ZM11.3343 12.7061C10.1816 14.0182 9.49434 15.6742 9.3793 17.417H5.12133C5.24427 14.5461 6.37905 11.8112 8.32477 9.6966L11.3343 12.7061ZM9.3793 18.4795C9.49434 20.2222 10.1816 21.8782 11.3343 23.1904L8.32477 26.1999C6.37905 24.0853 5.24427 21.3504 5.12133 18.4795H9.3793ZM12.086 23.9421C13.3981 25.0948 15.0541 25.782 16.7969 25.8971V30.155C13.9259 30.0321 11.1911 28.8973 9.07649 26.9516L12.086 23.9421ZM17.8594 25.8971C19.6021 25.782 21.2581 25.0948 22.5702 23.9421L25.5798 26.9516C23.4652 28.8973 20.7303 30.0321 17.8594 30.155V25.8971ZM23.322 23.1904C24.4747 21.8782 25.1619 20.2222 25.277 18.4795H29.5349C29.412 21.3504 28.2772 24.0853 26.3315 26.1999L23.322 23.1904ZM25.277 17.417C25.1619 15.6742 24.4747 14.0182 23.322 12.7061L26.3315 9.6966C28.2772 11.8112 29.412 14.5461 29.5349 17.417H25.277Z" fill="white"/>
</svg>
