<svg width="33" height="33" viewBox="0 0 33 33" fill="none" xmlns="http://www.w3.org/2000/svg">
<g id="remind">
<path id="Vector" d="M15.8292 8.68555C13.8292 10.6855 9.42919 14.2855 7.82919 12.6855C4.32917 9.18554 12.4959 9.35221 15.8292 8.68555ZM15.8292 8.68555C18.6625 8.68555 27.8292 7.68555 24.3292 11.1855C21.8292 13.6855 18.6625 10.3522 15.8292 8.68555ZM13.6576 26.514L8.32918 21.1855C7.50075 20.3571 7.50075 19.014 8.32918 18.1855C9.15761 17.3571 10.5008 17.3571 11.3292 18.1855L13.1592 20.0156C13.4065 20.2628 13.8292 20.0877 13.8292 19.7381V7.68555C13.8292 6.58098 14.7246 5.68555 15.8292 5.68555C16.9338 5.68555 17.8292 6.58098 17.8292 7.68555V15.6827C17.8292 16.0152 18.2479 16.1621 18.4557 15.9024C19.1598 15.0222 20.4985 15.0222 21.2027 15.9024L21.6001 16.3992C21.7337 16.5662 21.9659 16.6172 22.1572 16.5216L22.8236 16.1883C23.4566 15.8718 24.2017 15.8718 24.8348 16.1883C25.4442 16.4931 25.8292 17.116 25.8292 17.7973V23.6855C25.8292 25.8947 24.0383 27.6855 21.8292 27.6855H16.486C15.4252 27.6855 14.4078 27.2641 13.6576 26.514Z" stroke="white" stroke-opacity="0.9" stroke-width="1.5" stroke-linecap="round"/>
</g>
</svg>
