<svg width="33" height="33" viewBox="0 0 33 33" fill="none" xmlns="http://www.w3.org/2000/svg">
<g id="vip">
<path id="Vector" d="M7.83008 13.2324L10.8301 19.7324L13.8301 13.2324M17.3301 13.2324V19.7324M21.3301 17.5072H22.8109C23.4611 17.5072 24.0873 17.2323 24.5316 16.7575C25.2827 15.9549 25.3778 14.7254 24.7464 13.8256C24.4854 13.4538 24.0597 13.2325 23.6054 13.2325H21.3301V17.5072ZM21.3301 17.5072V19.7325M5.83008 7.23242H27.8301C28.9346 7.23242 29.8301 8.12785 29.8301 9.23242V23.2324C29.8301 24.337 28.9346 25.2324 27.83 25.2324H5.83074C4.72617 25.2324 3.83008 24.337 3.83008 23.2324V9.23242C3.83008 8.12785 4.72551 7.23242 5.83008 7.23242Z" stroke="white" stroke-opacity="0.9" stroke-linecap="round" stroke-linejoin="round"/>
</g>
</svg>
