<svg width="95" height="94" viewBox="0 0 95 94" fill="none" xmlns="http://www.w3.org/2000/svg">
<path id="Vector" d="M27.9444 91L41.0662 57.3488C43.7551 50.4496 45.1044 47 47.5 47C49.8956 47 51.24 50.4496 53.9338 57.3488L67.0556 91M57.2778 11.8C57.2778 14.1339 56.2476 16.3722 54.4139 18.0225C52.5802 19.6729 50.0932 20.6 47.5 20.6C44.9068 20.6 42.4198 19.6729 40.5861 18.0225C38.7524 16.3722 37.7222 14.1339 37.7222 11.8C37.7222 9.4661 38.7524 7.22778 40.5861 5.57746C42.4198 3.92714 44.9068 3 47.5 3C50.0932 3 52.5802 3.92714 54.4139 5.57746C56.2476 7.22778 57.2778 9.4661 57.2778 11.8ZM81.7222 38.2C79.129 38.2 76.642 37.2729 74.8083 35.6225C72.9746 33.9722 71.9444 31.7339 71.9444 29.4C71.9444 27.0661 72.9746 24.8278 74.8083 23.1775C76.642 21.5271 79.129 20.6 81.7222 20.6C84.3154 20.6 86.8025 21.5271 88.6362 23.1775C90.4698 24.8278 91.5 27.0661 91.5 29.4C91.5 31.7339 90.4698 33.9722 88.6362 35.6225C86.8025 37.2729 84.3154 38.2 81.7222 38.2ZM23.0556 64.6C23.0556 66.9339 22.0254 69.1722 20.1917 70.8225C18.358 72.4729 15.871 73.4 13.2778 73.4C10.6845 73.4 8.19753 72.4729 6.36384 70.8225C4.53016 69.1722 3.5 66.9339 3.5 64.6C3.5 62.2661 4.53016 60.0278 6.36384 58.3775C8.19753 56.7271 10.6845 55.8 13.2778 55.8C15.871 55.8 18.358 56.7271 20.1917 58.3775C22.0254 60.0278 23.0556 62.2661 23.0556 64.6ZM23.0556 28.3C23.0556 30.6339 22.0254 32.8722 20.1917 34.5225C18.358 36.1729 15.871 37.1 13.2778 37.1C10.6845 37.1 8.19753 36.1729 6.36384 34.5225C4.53016 32.8722 3.5 30.6339 3.5 28.3C3.5 25.9661 4.53016 23.7278 6.36384 22.0775C8.19753 20.4271 10.6845 19.5 13.2778 19.5C15.871 19.5 18.358 20.4271 20.1917 22.0775C22.0254 23.7278 23.0556 25.9661 23.0556 28.3ZM91.5 64.6C91.5 66.9339 90.4698 69.1722 88.6362 70.8225C86.8025 72.4729 84.3154 73.4 81.7222 73.4C79.129 73.4 76.642 72.4729 74.8083 70.8225C72.9746 69.1722 71.9444 66.9339 71.9444 64.6C71.9444 62.2661 72.9746 60.0278 74.8083 58.3775C76.642 56.7271 79.129 55.8 81.7222 55.8C84.3154 55.8 86.8025 56.7271 88.6362 58.3775C90.4698 60.0278 91.5 62.2661 91.5 64.6Z" stroke="#30D689" stroke-width="5.1" stroke-linecap="round" stroke-linejoin="round"/>
</svg>
